PathFileType	4	(X/Y/Z)	TVC_39_BWA_06_walk_RCNL2025.trc
DataRate	CameraRate	NumFrames	NumMarkers	Units	OrigDataRate	OrigDataStartFrame	OrigNumFrames
100	100	8	27	mm	100	699	1118
Frame#	Time	R_Shoulder			L_Shoulder			C7			J_Notch			R_Elbow			L_Elbow			R_Wrist			L_Wrist			R_Asis			L_Asis			R_Psis			L_Psis			Sacral			Thoracic			Sternum			R_Thigh_Lateral			R_Knee_Lateral			R_Shank_Lateral			R_Ankle_Lateral			R_Heel			R_Toe			L_Thigh_Lateral			L_Knee_Lateral			L_Shank_Lateral			L_Ankle_Lateral			L_Heel			L_Toe		
		X1	Y1	Z1	X2	Y2	Z2	X3	Y3	Z3	X4	Y4	Z4	X5	Y5	Z5	X6	Y6	Z6	X7	Y7	Z7	X8	Y8	Z8	X9	Y9	Z9	X10	Y10	Z10	X11	Y11	Z11	X12	Y12	Z12	X13	Y13	Z13	X14	Y14	Z14	X15	Y15	Z15	X16	Y16	Z16	X17	Y17	Z17	X18	Y18	Z18	X19	Y19	Z19	X20	Y20	Z20	X21	Y21	Z21	X22	Y22	Z22	X23	Y23	Z23	X24	Y24	Z24	X25	Y25	Z25	X26	Y26	Z26	X27	Y27	Z27
699	6.98000000	85.155060	1464.218018	419.355225	99.077011	1471.842651	45.721493	55.928600	1532.893921	226.920349	206.821930	1415.802368	230.083496	114.019814	1150.674561	545.198059	42.838642	1152.542725	-56.609673	218.690773	917.905762	512.785034	123.042374	903.462524	-40.997364	174.008270	937.754028	371.414886	189.490891	928.793823	77.361351	-21.311483	953.375305	272.446167	-17.128107	944.788635	165.210495	-19.219795	949.081970	218.828331	-26.307232	1200.313965	215.600815	259.504883	1259.590576	241.678192	165.674500	747.731201	457.493896	218.300598	485.466095	400.831116	163.378952	304.925781	465.344696	153.421829	78.916451	377.464020	114.437126	61.504433	321.721405	296.066101	46.924469	397.412567	123.549515	668.301758	12.364566	102.226608	447.168182	100.871086	31.396660	320.741486	39.914032	-63.394173	74.249344	127.943275	-114.495491	63.063950	180.611389	72.687569	42.131866	127.776138
700	6.99000000	87.768974	1463.293823	421.547699	101.605728	1472.019043	48.003597	58.626560	1532.539429	229.358994	209.571930	1415.564697	232.166458	116.112671	1149.488403	546.711182	45.961452	1152.810913	-55.033558	220.548264	916.587280	514.643402	127.546799	904.115387	-39.409951	177.428528	937.541870	372.434387	192.415039	928.399780	78.551170	-18.062372	953.299255	273.756287	-14.011997	944.475708	166.482681	-16.037185	948.887482	220.119484	-23.273945	1199.882812	217.057251	262.489471	1259.413086	243.312195	169.388687	747.813232	458.432037	221.202744	485.116119	401.791992	164.984039	304.737976	466.000610	153.989685	78.907272	377.668915	114.670937	61.656719	322.045105	296.396851	47.037945	397.626678	126.200829	667.694580	13.546514	104.260612	446.618988	101.726028	32.777370	320.678375	40.564674	-63.248199	74.443657	128.138687	-114.371574	63.338051	180.740646	72.745033	42.133392	127.844643
701	7.00000000	90.410767	1462.379883	423.715668	104.285591	1472.226440	50.266029	61.381966	1532.212280	231.778961	212.376785	1415.327271	234.257553	118.256462	1148.311157	548.187012	49.149616	1153.141113	-53.506355	222.471886	915.288818	516.492355	132.006229	904.804596	-37.815024	180.745148	937.351196	373.476501	195.309753	928.004700	79.750526	-14.885254	953.250916	275.024261	-10.944313	944.182983	167.724854	-12.914783	948.716949	221.374557	-20.235508	1199.507812	218.439926	265.487305	1259.220215	244.966675	172.437775	747.743652	459.482361	223.822998	484.741150	402.793945	166.239441	304.503052	466.584686	154.480942	78.866798	377.813721	114.841217	61.751728	322.282318	296.638733	47.140114	397.805145	128.836975	667.101196	14.739063	106.382286	446.087585	102.558052	34.238083	320.640350	41.190933	-63.097843	74.696037	128.318573	-114.244942	63.697617	180.860931	72.805527	42.135338	127.913818
702	7.01000000	93.077835	1461.483154	425.855652	107.112541	1472.464111	52.504501	64.192307	1531.915771	234.174469	215.232483	1415.091919	236.353592	120.452850	1147.149048	549.621094	52.406292	1153.530396	-52.030273	224.458008	914.014282	518.323883	136.413376	905.524445	-36.217841	183.957504	937.178772	374.538666	198.171219	927.619019	80.952477	-11.782504	953.228333	276.251770	-7.929124	943.914551	168.939041	-9.855814	948.571442	222.595406	-17.197819	1199.192749	219.755371	268.492584	1259.013672	246.639343	174.841110	747.515503	460.631561	226.186066	484.341797	403.817261	167.230453	304.225464	467.105408	154.892258	78.798759	377.898315	114.954094	61.797066	322.437897	296.795349	47.224915	397.947266	131.441116	666.538696	15.931238	108.588722	445.586823	103.357216	35.777340	320.638214	41.783886	-62.939503	75.019814	128.471268	-114.115112	64.160301	180.957306	72.868500	42.137218	127.981705
703	7.02000000	95.767120	1460.611206	427.964691	110.079735	1472.732178	54.715626	67.054504	1531.653198	236.540512	218.134521	1414.861328	238.451614	122.702049	1146.008667	551.009644	55.732098	1153.976196	-50.605934	226.502457	912.768768	520.129959	140.761639	906.270294	-34.624203	187.066223	937.022217	375.618195	200.997513	927.253662	82.150856	-8.755195	953.230530	277.439941	-4.968619	943.674988	170.126236	-6.861907	948.452759	223.783089	-14.166036	1198.940796	221.010666	271.499908	1258.796509	248.328079	176.664856	747.138000	461.859650	228.323059	483.920868	404.843811	168.042740	303.912994	467.575134	155.224442	78.709404	377.928406	115.019974	61.803371	322.521851	296.875305	47.289124	398.055695	134.000916	666.025085	17.109859	110.875351	445.128937	104.114326	37.393833	320.682739	42.335194	-62.768250	75.427338	128.582870	-113.979385	64.741135	181.011932	72.934181	42.138210	128.045654
704	7.03000000	98.475243	1459.772217	430.040619	113.177856	1473.030884	56.896980	69.964996	1531.428345	238.872971	221.078033	1414.639282	240.548935	125.002739	1144.897339	552.349854	59.124825	1154.476440	-49.232380	228.600723	911.558228	521.902481	145.045135	907.038727	-33.040301	190.073120	936.879944	376.712402	203.788452	926.919189	83.340401	-5.803128	953.256897	278.589203	-2.063210	943.469482	171.286469	-3.933169	948.363190	224.937836	-11.144514	1198.754883	222.213257	274.504333	1258.572632	250.030991	178.012741	746.633789	463.141541	230.267990	483.482727	405.856903	168.754120	303.575073	468.006927	155.482040	78.606247	377.913330	115.052055	61.782562	322.546600	296.890686	47.331909	398.134918	136.509613	665.578186	18.260365	113.236099	444.724884	104.821434	39.086536	320.783844	42.837555	-62.577965	75.929115	128.638428	-113.832848	65.451408	181.005295	73.003716	42.137161	128.102417
705	7.04000000	101.198555	1458.974731	432.081818	116.395470	1473.361938	59.047165	72.919876	1531.244629	241.168655	224.057922	1414.429810	242.643173	127.352043	1143.822876	553.639954	62.579315	1155.029785	-47.907150	230.747948	910.389557	523.633560	149.258621	907.827667	-31.472554	192.981094	936.751160	377.818390	206.545486	926.625977	84.516861	-2.924896	953.307983	279.699554	0.788301	943.303406	172.418839	-1.068297	948.305695	226.059196	-8.136760	1198.637451	223.370590	277.501434	1258.346558	251.746506	179.012833	746.034607	464.448730	232.054672	483.032715	406.841095	169.428558	303.221863	468.412079	155.672516	78.497047	377.864075	115.064903	61.746338	322.524811	296.855621	47.354359	398.190186	138.966705	665.214600	19.368149	115.663956	444.384033	105.472466	40.855080	320.949921	43.285137	-62.361561	76.533157	128.623398	-113.669724	66.298531	180.918274	73.079140	42.132751	128.148361
706	7.05000000	103.933266	1458.227173	434.087494	119.719452	1473.727173	61.165855	75.915001	1531.105957	243.425430	227.068985	1414.237671	244.732422	129.745544	1142.793091	554.879578	66.087456	1155.635132	-46.626385	232.939125	909.270111	525.315430	153.397560	908.636383	-29.927440	195.794052	936.635864	378.933136	209.271378	926.383484	85.677032	-0.117986	953.384766	280.770599	3.588490	943.182434	173.521759	1.735252	948.283600	227.146179	-5.145432	1198.590332	224.490005	280.487518	1258.123779	253.473343	179.803055	745.377441	465.751465	233.714066	482.577026	407.782043	170.113083	302.863556	468.798523	155.805374	78.389030	377.791962	115.072990	61.705093	322.467804	296.785004	47.358971	398.226624	141.378555	664.948181	20.420280	118.151695	444.113800	106.063652	42.700134	321.186646	43.673771	-62.111397	77.244568	128.525238	-113.484970	67.286674	180.734070	73.163208	42.123737	128.179916
